<mxfile host="app.diagrams.net" modified="2024-07-05T10:04:50.741Z" agent="Mozilla/5.0 (Windows NT 10.0; Win64; x64; rv:127.0) Gecko/20100101 Firefox/127.0" etag="2G28EiHi5p5oBNPNPrRb" version="24.6.4" type="github">
  <diagram id="7OK4WaRRGmC01p3s4jBd" name="Page">
    <mxGraphModel dx="1370" dy="-5076" grid="1" gridSize="10" guides="1" tooltips="1" connect="1" arrows="1" fold="1" page="1" pageScale="1" pageWidth="827" pageHeight="1169" math="0" shadow="0">
      <root>
        <mxCell id="0" />
        <mxCell id="1" parent="0" />
        <mxCell id="We9xeH8q5oOFazqO6uOZ-1" value="PublicTransitAnalysis" style="swimlane;fontStyle=1;align=center;verticalAlign=top;childLayout=stackLayout;horizontal=1;startSize=26;horizontalStack=0;resizeParent=1;resizeParentMax=0;resizeLast=0;collapsible=1;marginBottom=0;whiteSpace=wrap;html=1;" parent="1" vertex="1">
          <mxGeometry x="103" y="5870" width="650" height="580" as="geometry" />
        </mxCell>
        <mxCell id="We9xeH8q5oOFazqO6uOZ-2" value="&lt;font color=&quot;#ff0080&quot;&gt;+ field: type&lt;/font&gt;" style="text;strokeColor=none;fillColor=none;align=left;verticalAlign=top;spacingLeft=4;spacingRight=4;overflow=hidden;rotatable=0;points=[[0,0.5],[1,0.5]];portConstraint=eastwest;whiteSpace=wrap;html=1;" parent="We9xeH8q5oOFazqO6uOZ-1" vertex="1">
          <mxGeometry y="26" width="650" height="26" as="geometry" />
        </mxCell>
        <mxCell id="We9xeH8q5oOFazqO6uOZ-3" value="" style="line;strokeWidth=1;fillColor=none;align=left;verticalAlign=middle;spacingTop=-1;spacingLeft=3;spacingRight=3;rotatable=0;labelPosition=right;points=[];portConstraint=eastwest;strokeColor=inherit;" parent="We9xeH8q5oOFazqO6uOZ-1" vertex="1">
          <mxGeometry y="52" width="650" height="8" as="geometry" />
        </mxCell>
        <mxCell id="We9xeH8q5oOFazqO6uOZ-4" value="&lt;div&gt;- __init__(&lt;font color=&quot;#ff0080&quot;&gt;iface&lt;/font&gt;)&lt;/div&gt;&lt;div&gt;+ tr(&lt;font color=&quot;#ff0080&quot;&gt;message&lt;/font&gt;): &lt;font color=&quot;#ff0080&quot;&gt;return&lt;/font&gt;&lt;br&gt;&lt;/div&gt;&lt;div&gt;+ add_action( &lt;font color=&quot;#ff0080&quot;&gt;icon_path, text, callback,&lt;/font&gt; enabled_flag:bool=True, add_to_menu:bool=True, add_to_toolbar:bool=True, &lt;font color=&quot;#ff0080&quot;&gt;status_tip=None, whats_this=None, parent=None&lt;/font&gt;): &lt;font color=&quot;#ff0080&quot;&gt;return&lt;/font&gt;&lt;/div&gt;&lt;div&gt;+ initGui(): None&lt;/div&gt;&lt;div&gt;+ unload(): None&lt;/div&gt;&lt;div&gt;+ check_grizzly_server_is_running(): None&lt;/div&gt;&lt;div&gt;+ get_request_url(): str&lt;/div&gt;&lt;div&gt;+ query_all_stops_incl_departure_times(poi: Request): dict&lt;/div&gt;&lt;div&gt;+ create_request_object(): Request&lt;/div&gt;&lt;div&gt;+ create_dataframe_with_station_attributes(station_collection: list, poi:Request): &lt;font color=&quot;#ff0080&quot;&gt;DataFrame&lt;/font&gt;&lt;/div&gt;&lt;div&gt;+ create_dataframe_for_stop_objects(stop_collection: list, poi:Request): &lt;font color=&quot;#ff0080&quot;&gt;DataFrame&lt;/font&gt;&lt;/div&gt;&lt;div&gt;+ create_stop_and_route_objects(queried_stops:list, poi:Request): list, list&lt;/div&gt;&lt;div&gt;+ create_stations(stop_collection:list): list&lt;/div&gt;&lt;div&gt;+ create_itineraries_from_start_to_each_station(station_collection:list, poi:Request, route_Collection:list): None&lt;br&gt;&lt;/div&gt;&lt;div&gt;+ export_stops_as_geopackage(stop_collection:list, poi:Request): None&lt;/div&gt;&lt;div&gt;+ export_stations_as_geopackag(station_collection:list, poi:Request): None&lt;/div&gt;&lt;div&gt;+ stops_with_departure_times_from_otp_to_gpk(): None&lt;/div&gt;&lt;div&gt;+ stations_from_otp_to_gpk(): None&lt;/div&gt;&lt;div&gt;+ itineraries_data_from_otp_to_geopackage(start_or_end_station:str): None&lt;/div&gt;&lt;div&gt;+ select_output_file(current_line_edit:str): None&lt;/div&gt;&lt;div&gt;+ set_symbol_point_or_polygon(&lt;font color=&quot;#ff0080&quot;&gt;layer)&lt;/font&gt;: &lt;font color=&quot;#ff0080&quot;&gt;return&lt;/font&gt;&lt;br&gt;&lt;/div&gt;&lt;div&gt;+ set_default_symbology(): None&lt;/div&gt;&lt;div&gt;+ symbology_for_particular_points(): None&lt;/div&gt;&lt;div&gt;+ symbology_travel_time(layer): None&lt;/div&gt;&lt;div&gt;+ symbology_travel_time_ratio(layer): None&lt;/div&gt;&lt;div&gt;+ symbology_frequency(layer): None &lt;br&gt;&lt;/div&gt;&lt;div&gt;+ symbology_walk_time(layer): None&lt;/div&gt;&lt;div&gt;+ symbology_walk_distance(layer): None&lt;/div&gt;&lt;div&gt;+ get_hex_from_color(color:QColor): str&lt;/div&gt;&lt;div&gt;+ get_colors(ramp_name:str, num_colors. list): list&lt;/div&gt;&lt;div&gt;+ get_layers(&lt;font color=&quot;#ff0080&quot;&gt;root, &lt;/font&gt;layer_type:str): list&lt;/div&gt;&lt;div&gt;+ load_layers_in_combobox(): None&lt;/div&gt;&lt;div&gt;+ not_implemented_yet(): None &lt;br&gt;&lt;/div&gt;&lt;div&gt;+ run(): None&lt;br&gt;&lt;/div&gt;&lt;div&gt;&lt;br&gt;&lt;br&gt;&lt;br&gt;&lt;/div&gt;&lt;div&gt;&lt;br&gt;&lt;/div&gt;&lt;div&gt;&lt;br&gt;&lt;br&gt;&lt;br&gt;&lt;/div&gt;&lt;div&gt;&lt;br&gt;&lt;/div&gt;&lt;div&gt;&lt;br&gt;&lt;/div&gt;" style="text;strokeColor=none;fillColor=none;align=left;verticalAlign=top;spacingLeft=4;spacingRight=4;overflow=hidden;rotatable=0;points=[[0,0.5],[1,0.5]];portConstraint=eastwest;whiteSpace=wrap;html=1;" parent="We9xeH8q5oOFazqO6uOZ-1" vertex="1">
          <mxGeometry y="60" width="650" height="520" as="geometry" />
        </mxCell>
        <mxCell id="We9xeH8q5oOFazqO6uOZ-5" value="Station" style="swimlane;fontStyle=1;align=center;verticalAlign=top;childLayout=stackLayout;horizontal=1;startSize=26;horizontalStack=0;resizeParent=1;resizeParentMax=0;resizeLast=0;collapsible=1;marginBottom=0;whiteSpace=wrap;html=1;" parent="1" vertex="1">
          <mxGeometry x="627" y="6710" width="160" height="86" as="geometry" />
        </mxCell>
        <mxCell id="We9xeH8q5oOFazqO6uOZ-6" value="+ field: type" style="text;strokeColor=none;fillColor=none;align=left;verticalAlign=top;spacingLeft=4;spacingRight=4;overflow=hidden;rotatable=0;points=[[0,0.5],[1,0.5]];portConstraint=eastwest;whiteSpace=wrap;html=1;" parent="We9xeH8q5oOFazqO6uOZ-5" vertex="1">
          <mxGeometry y="26" width="160" height="26" as="geometry" />
        </mxCell>
        <mxCell id="We9xeH8q5oOFazqO6uOZ-7" value="" style="line;strokeWidth=1;fillColor=none;align=left;verticalAlign=middle;spacingTop=-1;spacingLeft=3;spacingRight=3;rotatable=0;labelPosition=right;points=[];portConstraint=eastwest;strokeColor=inherit;" parent="We9xeH8q5oOFazqO6uOZ-5" vertex="1">
          <mxGeometry y="52" width="160" height="8" as="geometry" />
        </mxCell>
        <mxCell id="We9xeH8q5oOFazqO6uOZ-8" value="+ method(type): type" style="text;strokeColor=none;fillColor=none;align=left;verticalAlign=top;spacingLeft=4;spacingRight=4;overflow=hidden;rotatable=0;points=[[0,0.5],[1,0.5]];portConstraint=eastwest;whiteSpace=wrap;html=1;" parent="We9xeH8q5oOFazqO6uOZ-5" vertex="1">
          <mxGeometry y="60" width="160" height="26" as="geometry" />
        </mxCell>
        <mxCell id="We9xeH8q5oOFazqO6uOZ-9" value="Stop" style="swimlane;fontStyle=1;align=center;verticalAlign=top;childLayout=stackLayout;horizontal=1;startSize=26;horizontalStack=0;resizeParent=1;resizeParentMax=0;resizeLast=0;collapsible=1;marginBottom=0;whiteSpace=wrap;html=1;" parent="1" vertex="1">
          <mxGeometry x="293" y="6710" width="160" height="86" as="geometry" />
        </mxCell>
        <mxCell id="We9xeH8q5oOFazqO6uOZ-10" value="+ field: type" style="text;strokeColor=none;fillColor=none;align=left;verticalAlign=top;spacingLeft=4;spacingRight=4;overflow=hidden;rotatable=0;points=[[0,0.5],[1,0.5]];portConstraint=eastwest;whiteSpace=wrap;html=1;" parent="We9xeH8q5oOFazqO6uOZ-9" vertex="1">
          <mxGeometry y="26" width="160" height="26" as="geometry" />
        </mxCell>
        <mxCell id="We9xeH8q5oOFazqO6uOZ-11" value="" style="line;strokeWidth=1;fillColor=none;align=left;verticalAlign=middle;spacingTop=-1;spacingLeft=3;spacingRight=3;rotatable=0;labelPosition=right;points=[];portConstraint=eastwest;strokeColor=inherit;" parent="We9xeH8q5oOFazqO6uOZ-9" vertex="1">
          <mxGeometry y="52" width="160" height="8" as="geometry" />
        </mxCell>
        <mxCell id="We9xeH8q5oOFazqO6uOZ-12" value="+ method(type): type" style="text;strokeColor=none;fillColor=none;align=left;verticalAlign=top;spacingLeft=4;spacingRight=4;overflow=hidden;rotatable=0;points=[[0,0.5],[1,0.5]];portConstraint=eastwest;whiteSpace=wrap;html=1;" parent="We9xeH8q5oOFazqO6uOZ-9" vertex="1">
          <mxGeometry y="60" width="160" height="26" as="geometry" />
        </mxCell>
        <mxCell id="We9xeH8q5oOFazqO6uOZ-27" style="edgeStyle=orthogonalEdgeStyle;rounded=0;orthogonalLoop=1;jettySize=auto;html=1;exitX=0.5;exitY=0;exitDx=0;exitDy=0;entryX=0;entryY=0.25;entryDx=0;entryDy=0;endArrow=diamondThin;endFill=1;endSize=11;" parent="1" source="We9xeH8q5oOFazqO6uOZ-13" target="We9xeH8q5oOFazqO6uOZ-1" edge="1">
          <mxGeometry relative="1" as="geometry" />
        </mxCell>
        <mxCell id="We9xeH8q5oOFazqO6uOZ-13" value="ReferencePoint" style="swimlane;fontStyle=1;align=center;verticalAlign=top;childLayout=stackLayout;horizontal=1;startSize=26;horizontalStack=0;resizeParent=1;resizeParentMax=0;resizeLast=0;collapsible=1;marginBottom=0;whiteSpace=wrap;html=1;" parent="1" vertex="1">
          <mxGeometry x="90" y="6780" width="160" height="86" as="geometry" />
        </mxCell>
        <mxCell id="We9xeH8q5oOFazqO6uOZ-14" value="+ field: type" style="text;strokeColor=none;fillColor=none;align=left;verticalAlign=top;spacingLeft=4;spacingRight=4;overflow=hidden;rotatable=0;points=[[0,0.5],[1,0.5]];portConstraint=eastwest;whiteSpace=wrap;html=1;" parent="We9xeH8q5oOFazqO6uOZ-13" vertex="1">
          <mxGeometry y="26" width="160" height="26" as="geometry" />
        </mxCell>
        <mxCell id="We9xeH8q5oOFazqO6uOZ-15" value="" style="line;strokeWidth=1;fillColor=none;align=left;verticalAlign=middle;spacingTop=-1;spacingLeft=3;spacingRight=3;rotatable=0;labelPosition=right;points=[];portConstraint=eastwest;strokeColor=inherit;" parent="We9xeH8q5oOFazqO6uOZ-13" vertex="1">
          <mxGeometry y="52" width="160" height="8" as="geometry" />
        </mxCell>
        <mxCell id="We9xeH8q5oOFazqO6uOZ-16" value="+ method(type): type" style="text;strokeColor=none;fillColor=none;align=left;verticalAlign=top;spacingLeft=4;spacingRight=4;overflow=hidden;rotatable=0;points=[[0,0.5],[1,0.5]];portConstraint=eastwest;whiteSpace=wrap;html=1;" parent="We9xeH8q5oOFazqO6uOZ-13" vertex="1">
          <mxGeometry y="60" width="160" height="26" as="geometry" />
        </mxCell>
        <mxCell id="We9xeH8q5oOFazqO6uOZ-17" value="Itinerary" style="swimlane;fontStyle=1;align=center;verticalAlign=top;childLayout=stackLayout;horizontal=1;startSize=26;horizontalStack=0;resizeParent=1;resizeParentMax=0;resizeLast=0;collapsible=1;marginBottom=0;whiteSpace=wrap;html=1;" parent="1" vertex="1">
          <mxGeometry x="630" y="6910" width="160" height="86" as="geometry" />
        </mxCell>
        <mxCell id="We9xeH8q5oOFazqO6uOZ-18" value="+ field: type" style="text;strokeColor=none;fillColor=none;align=left;verticalAlign=top;spacingLeft=4;spacingRight=4;overflow=hidden;rotatable=0;points=[[0,0.5],[1,0.5]];portConstraint=eastwest;whiteSpace=wrap;html=1;" parent="We9xeH8q5oOFazqO6uOZ-17" vertex="1">
          <mxGeometry y="26" width="160" height="26" as="geometry" />
        </mxCell>
        <mxCell id="We9xeH8q5oOFazqO6uOZ-19" value="" style="line;strokeWidth=1;fillColor=none;align=left;verticalAlign=middle;spacingTop=-1;spacingLeft=3;spacingRight=3;rotatable=0;labelPosition=right;points=[];portConstraint=eastwest;strokeColor=inherit;" parent="We9xeH8q5oOFazqO6uOZ-17" vertex="1">
          <mxGeometry y="52" width="160" height="8" as="geometry" />
        </mxCell>
        <mxCell id="We9xeH8q5oOFazqO6uOZ-20" value="+ method(type): type" style="text;strokeColor=none;fillColor=none;align=left;verticalAlign=top;spacingLeft=4;spacingRight=4;overflow=hidden;rotatable=0;points=[[0,0.5],[1,0.5]];portConstraint=eastwest;whiteSpace=wrap;html=1;" parent="We9xeH8q5oOFazqO6uOZ-17" vertex="1">
          <mxGeometry y="60" width="160" height="26" as="geometry" />
        </mxCell>
        <mxCell id="We9xeH8q5oOFazqO6uOZ-21" value="Route" style="swimlane;fontStyle=1;align=center;verticalAlign=top;childLayout=stackLayout;horizontal=1;startSize=26;horizontalStack=0;resizeParent=1;resizeParentMax=0;resizeLast=0;collapsible=1;marginBottom=0;whiteSpace=wrap;html=1;" parent="1" vertex="1">
          <mxGeometry x="280" y="6910" width="160" height="86" as="geometry" />
        </mxCell>
        <mxCell id="We9xeH8q5oOFazqO6uOZ-22" value="+ field: type" style="text;strokeColor=none;fillColor=none;align=left;verticalAlign=top;spacingLeft=4;spacingRight=4;overflow=hidden;rotatable=0;points=[[0,0.5],[1,0.5]];portConstraint=eastwest;whiteSpace=wrap;html=1;" parent="We9xeH8q5oOFazqO6uOZ-21" vertex="1">
          <mxGeometry y="26" width="160" height="26" as="geometry" />
        </mxCell>
        <mxCell id="We9xeH8q5oOFazqO6uOZ-23" value="" style="line;strokeWidth=1;fillColor=none;align=left;verticalAlign=middle;spacingTop=-1;spacingLeft=3;spacingRight=3;rotatable=0;labelPosition=right;points=[];portConstraint=eastwest;strokeColor=inherit;" parent="We9xeH8q5oOFazqO6uOZ-21" vertex="1">
          <mxGeometry y="52" width="160" height="8" as="geometry" />
        </mxCell>
        <mxCell id="We9xeH8q5oOFazqO6uOZ-24" value="+ method(type): type" style="text;strokeColor=none;fillColor=none;align=left;verticalAlign=top;spacingLeft=4;spacingRight=4;overflow=hidden;rotatable=0;points=[[0,0.5],[1,0.5]];portConstraint=eastwest;whiteSpace=wrap;html=1;" parent="We9xeH8q5oOFazqO6uOZ-21" vertex="1">
          <mxGeometry y="60" width="160" height="26" as="geometry" />
        </mxCell>
        <mxCell id="We9xeH8q5oOFazqO6uOZ-29" style="edgeStyle=orthogonalEdgeStyle;rounded=0;orthogonalLoop=1;jettySize=auto;html=1;exitX=0.5;exitY=0;exitDx=0;exitDy=0;entryX=0.577;entryY=1.001;entryDx=0;entryDy=0;entryPerimeter=0;endArrow=diamondThin;endFill=1;endSize=11;" parent="1" source="We9xeH8q5oOFazqO6uOZ-9" target="We9xeH8q5oOFazqO6uOZ-4" edge="1">
          <mxGeometry relative="1" as="geometry">
            <mxPoint x="478.0000000000002" y="6650" as="targetPoint" />
            <Array as="points">
              <mxPoint x="233" y="6684" />
              <mxPoint x="478" y="6684" />
            </Array>
          </mxGeometry>
        </mxCell>
        <mxCell id="We9xeH8q5oOFazqO6uOZ-30" style="edgeStyle=orthogonalEdgeStyle;rounded=0;orthogonalLoop=1;jettySize=auto;html=1;exitX=0.5;exitY=0;exitDx=0;exitDy=0;entryX=1;entryY=-0.057;entryDx=0;entryDy=0;entryPerimeter=0;endArrow=diamondThin;endFill=1;endSize=11;" parent="1" source="We9xeH8q5oOFazqO6uOZ-5" target="We9xeH8q5oOFazqO6uOZ-2" edge="1">
          <mxGeometry relative="1" as="geometry">
            <Array as="points">
              <mxPoint x="707" y="6660" />
              <mxPoint x="790" y="6660" />
              <mxPoint x="790" y="5895" />
            </Array>
          </mxGeometry>
        </mxCell>
        <mxCell id="We9xeH8q5oOFazqO6uOZ-31" style="edgeStyle=orthogonalEdgeStyle;rounded=0;orthogonalLoop=1;jettySize=auto;html=1;exitX=1;exitY=0.25;exitDx=0;exitDy=0;entryX=-0.015;entryY=-0.075;entryDx=0;entryDy=0;entryPerimeter=0;endArrow=none;endFill=0;endSize=11;" parent="1" source="We9xeH8q5oOFazqO6uOZ-9" target="We9xeH8q5oOFazqO6uOZ-6" edge="1">
          <mxGeometry relative="1" as="geometry" />
        </mxCell>
        <mxCell id="We9xeH8q5oOFazqO6uOZ-32" style="edgeStyle=orthogonalEdgeStyle;rounded=0;orthogonalLoop=1;jettySize=auto;html=1;exitX=0.5;exitY=0;exitDx=0;exitDy=0;entryX=0.23;entryY=0.969;entryDx=0;entryDy=0;entryPerimeter=0;endArrow=diamondThin;endFill=1;endSize=11;" parent="1" source="We9xeH8q5oOFazqO6uOZ-17" target="We9xeH8q5oOFazqO6uOZ-8" edge="1">
          <mxGeometry relative="1" as="geometry" />
        </mxCell>
        <mxCell id="We9xeH8q5oOFazqO6uOZ-33" style="edgeStyle=orthogonalEdgeStyle;rounded=0;orthogonalLoop=1;jettySize=auto;html=1;exitX=0.5;exitY=0;exitDx=0;exitDy=0;entryX=0.424;entryY=0.969;entryDx=0;entryDy=0;entryPerimeter=0;endArrow=none;endFill=0;endSize=11;" parent="1" source="We9xeH8q5oOFazqO6uOZ-21" target="We9xeH8q5oOFazqO6uOZ-12" edge="1">
          <mxGeometry relative="1" as="geometry" />
        </mxCell>
        <mxCell id="QjmDpPWlhLIyLc7q0HFi-1" style="edgeStyle=orthogonalEdgeStyle;rounded=0;orthogonalLoop=1;jettySize=auto;html=1;exitX=0;exitY=0.5;exitDx=0;exitDy=0;entryX=0;entryY=0.5;entryDx=0;entryDy=0;endArrow=diamondThin;endFill=1;endSize=11;" parent="1" source="We9xeH8q5oOFazqO6uOZ-22" target="We9xeH8q5oOFazqO6uOZ-4" edge="1">
          <mxGeometry relative="1" as="geometry">
            <Array as="points">
              <mxPoint x="280" y="6953" />
              <mxPoint x="40" y="6953" />
              <mxPoint x="40" y="6190" />
            </Array>
          </mxGeometry>
        </mxCell>
      </root>
    </mxGraphModel>
  </diagram>
</mxfile>
